<svg width="170" height="170" viewBox="0 0 170 170" xmlns="http://www.w3.org/2000/svg"><title>title</title><g fill="none" fill-rule="evenodd"><circle fill="#CAFFB1" cx="85" cy="85" r="85"/><path d="M34.956 125.002h100.09V51.95H34.956v73.052zm36.13-28.428H92.5v28.428h-21.41V96.574zM30.942 42.818h108.395v9.132H30.94v-9.132zm45.5 73.914h10.483v-14.795H76.44v14.795zM95.038 51.95v7.305-7.305zm32.733 0v7.305-7.305zm-10.91 0v7.305-7.305zm-10.912 0v7.305-7.305zm-21.822 0v7.305-7.305zm16.366 65.747h25.72v-20.09h-25.72v20.09zM70.824 89.854h55.13V68.352h-55.13v21.502zm2.39-37.904v7.305-7.305zm-10.156 0v7.305-7.305zm-10.706 0v7.305-7.305zm-10.706 0v7.305-7.305zM5 125.002h160H5zm99.542-19.02h9.367v8.062h-9.368v-8.063zm-33.455 14.78h21.41-21.41zm0-8.062h21.41-21.41zm-29.44 5.376h21.41V68.352h-21.41v49.724zm34.793-44.35V84.48 73.726zm5.352 1.345v8.065-8.064zm5.353 5.377h6.69-6.69zM99.19 75.07v8.065-8.064zm10.704 1.345l1.34 8.064-1.34-8.065zm-6.69 6.72l4.014-4.032-4.015 4.032zm13.38-8.064l2.678 8.065-2.677-8.064zm-74.938 30.91h21.412-21.412z" stroke="#213143" stroke-width="2"/></g></svg>